<svg width="20" height="20" viewBox="0 0 20 20" fill="none" xmlns="http://www.w3.org/2000/svg">
<path fill-rule="evenodd" clip-rule="evenodd" d="M0.652778 19.3472C1.08796 19.7824 1.61111 20 2.22222 20H17.7778C18.3889 20 18.912 19.7824 19.3472 19.3472C19.7824 18.912 20 18.3889 20 17.7778V7.58333C20 7.28704 19.9444 7.00463 19.8333 6.73611C19.7222 6.46759 19.5648 6.23148 19.3611 6.02778L13.9722 0.638889C13.7685 0.435185 13.5324 0.277778 13.2639 0.166667C12.9954 0.0555556 12.713 0 12.4167 0H2.22222C1.61111 0 1.08796 0.217593 0.652778 0.652778C0.217593 1.08796 0 1.61111 0 2.22222V17.7778C0 18.3889 0.217593 18.912 0.652778 19.3472ZM5.52054 14.8189C4.57209 15.2957 3.91175 15.7445 3.54801 16.1213C3.36497 16.3109 3.28072 16.4582 3.25351 16.5587C3.23157 16.6398 3.24519 16.6862 3.28509 16.7343C3.32736 16.7852 3.35781 16.8055 3.37664 16.8144C3.39265 16.822 3.41497 16.8284 3.45625 16.825C3.55788 16.8165 3.73134 16.753 4.03562 16.5649C4.22662 16.4469 4.56081 16.1222 4.94906 15.663C5.18326 15.386 5.42667 15.0727 5.65601 14.7508L5.52054 14.8189ZM12.2986 12.53C12.3321 12.5609 12.3714 12.5967 12.4159 12.6361C12.5709 12.773 12.7915 12.9562 13.0539 13.1405C14.2136 13.955 15.496 14.3432 16.5119 14.3412C17.0177 14.3402 17.486 14.2421 17.8396 14.0217C18.2075 13.7924 18.4446 13.4313 18.4446 12.9643C18.4446 12.6338 18.3544 12.3136 18.1448 12.0349C17.937 11.7586 17.6291 11.5457 17.2303 11.3964C16.4436 11.1018 15.2473 11.0333 13.5462 11.2552L12.6716 11.3694L11.9379 10.4567C11.4863 9.88926 10.9831 9.1932 10.8193 8.91509L10.5688 8.48986L10.8981 7.22377C11.1245 6.35313 11.2505 5.56193 11.2696 4.88462C11.2886 4.21302 11.2036 3.62478 10.9813 3.18116C10.6922 2.60439 10.1697 2.26656 9.6365 2.22624C9.09409 2.18522 8.55783 2.45807 8.31386 3.04704C8.22457 3.26262 8.18002 3.54419 8.16192 3.84108C8.14343 4.14443 8.15122 4.49011 8.18123 4.84869C8.24109 5.56369 8.39163 6.3561 8.61832 6.9987L8.92785 7.87609L8.46302 9.10301C8.18631 9.83337 7.68319 11.0369 7.34713 11.7721L6.7798 13.0134L5.3033 13.7472C4.03529 14.3773 3.11951 15.0107 2.63319 15.6284C2.38754 15.9404 2.23049 16.275 2.22254 16.6224C2.21435 16.9805 2.36556 17.2987 2.63113 17.5643C2.93258 17.8657 3.35826 17.9815 3.79342 17.9649C4.23033 17.9482 4.70454 17.7991 5.15446 17.5354C5.5679 17.2931 6.03676 16.8581 6.50478 16.32C6.97722 15.7767 7.4652 15.1092 7.91402 14.382C8.02912 14.1956 8.17643 13.9718 8.29627 13.7928C8.35445 13.7059 8.40567 13.6303 8.44286 13.5757C9.39776 13.2534 9.74136 13.1389 10.413 12.9578C10.7466 12.8679 11.2582 12.7525 11.6919 12.6586C11.9076 12.6119 12.1021 12.5709 12.2426 12.5416L12.2986 12.53ZM10.0869 9.74577C9.98983 10.0293 9.87206 10.3565 9.76273 10.6148L9.11504 12.2157C9.46245 12.107 9.86663 11.9844 10.1491 11.9106C10.4702 11.8267 10.9505 11.7222 11.3452 11.6395L11.5179 11.6036L11.4192 11.4825C11.1182 11.1639 10.6328 10.5361 10.321 10.0661C10.2338 9.95156 10.1558 9.84409 10.0869 9.74577ZM13.7475 12.2784C13.7799 12.2984 13.8095 12.3161 13.8351 12.3307C14.1563 12.5141 14.9722 12.871 15.5644 13.0522C16.1415 13.2289 16.3578 13.1716 16.4916 13.0759L16.4943 13.0739C16.7374 12.9036 16.7365 12.5487 16.4058 12.3823C16.0723 12.2144 15.8136 12.1668 14.7451 12.1822C14.4502 12.2026 14.0801 12.2401 13.7475 12.2784ZM9.45624 6.09213C9.54895 5.69608 9.65408 5.16774 9.72296 4.73421C9.75834 4.43603 9.78145 4.15312 9.77452 3.91299C9.76788 3.6828 9.73413 3.53593 9.69247 3.45536C9.60303 3.36504 9.53784 3.3443 9.50914 3.34113C9.48933 3.33895 9.45841 3.34036 9.41092 3.38962C9.29356 3.51135 9.15133 3.86597 9.20449 4.54181C9.23699 4.95482 9.33204 5.62169 9.45624 6.09213Z" fill="#E50F0F"/>
</svg>
