<svg width="142" height="32" viewBox="0 0 142 32" fill="none" xmlns="http://www.w3.org/2000/svg">
<path fill-rule="evenodd" clip-rule="evenodd" d="M43 6H50.042C51.1982 6 52.2741 6.26115 53.2557 6.79061C54.25 7.31761 55.0488 8.05506 55.6392 8.99677C56.2633 9.94649 56.564 11.0446 56.564 12.262C56.564 13.0148 56.425 13.7611 56.1538 14.4973L56.1515 14.5034C55.8702 15.2468 55.4317 15.9201 54.8494 16.523C54.2626 17.1487 53.5196 17.6368 52.6423 17.9992L52.6346 18.0024C52.5903 18.0201 52.5456 18.0373 52.5006 18.0541L57.292 25.0292V26.116H53.541L48.4719 18.524H46.71V26.116H43V6ZM46.71 14.97H49.912C50.4333 14.97 50.9102 14.8515 51.3541 14.6157C51.7996 14.379 52.1566 14.0561 52.434 13.64C52.6917 13.2533 52.828 12.8026 52.828 12.262C52.828 11.8469 52.7194 11.436 52.4835 11.0198L52.4788 11.0114L52.4742 11.0029C52.2607 10.6026 51.9541 10.2727 51.5387 10.0096L51.5313 10.0049L51.524 10C51.1465 9.74836 50.6729 9.606 50.068 9.606H46.71V14.97Z" fill="#4C607F"/>
<path fill-rule="evenodd" clip-rule="evenodd" d="M61.6598 19.9019H71.9343L72.0549 19.299C72.0813 19.1671 72.0927 19.0298 72.095 18.8934C72.1126 18.7547 72.1215 18.6155 72.1215 18.4759C72.1215 17.0599 71.8417 15.772 71.2623 14.6306C70.6989 13.4863 69.8758 12.582 68.8002 11.9349C67.7248 11.2599 66.4559 10.9399 65.0275 10.9399C63.5948 10.9399 62.3095 11.3051 61.2016 12.0565C60.1364 12.7733 59.3069 13.732 58.7146 14.9165L58.7103 14.9253C58.1381 16.1078 57.8555 17.3904 57.8555 18.7619C57.8555 20.2191 58.1552 21.546 58.7733 22.7244L58.7778 22.7328C59.4101 23.9016 60.2804 24.8328 61.385 25.5111L61.39 25.5141C62.5229 26.1978 63.8033 26.5319 65.2095 26.5319C66.7792 26.5319 68.1486 26.1759 69.2706 25.4145C70.3408 24.6884 71.1721 23.763 71.7516 22.6425L72.1049 21.9596L68.9069 20.405L68.5602 21.0195C68.2331 21.5994 67.7951 22.0908 67.239 22.4969C66.7729 22.8331 66.1411 23.0299 65.2875 23.0299C64.671 23.0299 64.0718 22.881 63.4815 22.5717C62.9435 22.2811 62.4856 21.8324 62.1138 21.193C61.9057 20.835 61.7509 20.4076 61.6598 19.9019ZM61.9471 16.5819H68.1246C68.1076 16.5307 68.0892 16.4785 68.0692 16.4253L68.0628 16.4081L68.0572 16.3905C67.9536 16.0668 67.7767 15.7602 67.5133 15.4691L67.5008 15.4553L67.489 15.4409C67.2591 15.1598 66.9498 14.9237 66.5407 14.7403L66.5262 14.7338L66.5121 14.7268C66.1602 14.5508 65.677 14.4419 65.0275 14.4419C64.2981 14.4419 63.6985 14.629 63.1967 14.9816L63.1933 14.984C62.6931 15.3313 62.2916 15.8164 61.9952 16.4658C61.9787 16.5041 61.9627 16.5429 61.9471 16.5819Z" fill="#4C607F"/>
<path d="M128.563 6H124.109L130.537 15.747L123.751 26.116H128.143L132.885 18.883L137.602 26.116H141.995L135.209 15.747L141.637 6H137.209L132.886 12.7012L128.563 6Z" fill="#4C607F"/>
<path d="M117.808 10.9399C116.74 10.9399 115.742 11.2087 114.828 11.7451L114.822 11.7488C114.588 11.8892 114.368 12.0386 114.164 12.1973V11.3559H110.558V26.1159H114.268V17.9039C114.268 17.3074 114.398 16.7435 114.66 16.204C114.92 15.6694 115.274 15.2478 115.723 14.925L115.73 14.9205L115.736 14.9159C116.154 14.6024 116.635 14.4419 117.21 14.4419C118.035 14.4419 118.635 14.6666 119.078 15.0594L119.087 15.0669L119.095 15.0741C119.47 15.386 119.762 16.0134 119.762 17.2019V26.1159H123.472V16.8639C123.472 15.1699 123.018 13.7311 122.039 12.6271C121.042 11.4641 119.583 10.9399 117.808 10.9399Z" fill="#4C607F"/>
<path d="M91.6981 11.356H87.8232L92.5696 26.116H95.8727L98.735 17.2234L101.619 26.116H104.946L109.721 11.356H105.897L103.273 20.0737L100.475 11.356H97.1188L94.3218 20.0941L91.6981 11.356Z" fill="#4C607F"/>
<path fill-rule="evenodd" clip-rule="evenodd" d="M80.4175 10.9399C78.9611 10.9399 77.6442 11.2819 76.4908 11.9857C75.3536 12.6796 74.4567 13.6265 73.8058 14.8133L73.8038 14.8171C73.167 15.9943 72.8555 17.3062 72.8555 18.7359C72.8555 20.1658 73.167 21.4844 73.8014 22.6763L73.8048 22.6827L73.8084 22.6891C74.46 23.8581 75.3566 24.7941 76.4908 25.4862C77.6442 26.1899 78.9611 26.5319 80.4175 26.5319C81.8738 26.5319 83.1907 26.1899 84.3441 25.4862C85.4797 24.7933 86.3693 23.8553 87.0041 22.6827C87.6579 21.4898 87.9795 20.1689 87.9795 18.7359C87.9795 17.3204 87.6579 16.0167 87.0041 14.8411C86.3711 13.6544 85.4833 12.7078 84.3481 12.0141C83.1945 11.2918 81.8761 10.9399 80.4175 10.9399ZM78.5224 14.944C79.1236 14.6068 79.7516 14.4419 80.4175 14.4419C81.0832 14.4419 81.6996 14.6067 82.2796 14.9402L82.2865 14.944C82.869 15.2708 83.3461 15.7491 83.7173 16.4025L83.7211 16.4089C84.0743 17.0165 84.2695 17.7812 84.2695 18.7359C84.2695 19.6884 84.0752 20.4642 83.7192 21.0923C83.3494 21.7271 82.8724 22.1991 82.2865 22.5278L82.2796 22.5318C81.6997 22.8652 81.0832 23.0299 80.4175 23.0299C79.7516 23.0299 79.1236 22.8651 78.5224 22.5278C77.9365 22.1991 77.4595 21.727 77.0897 21.0922C76.7337 20.4641 76.5395 19.6884 76.5395 18.7359C76.5395 17.7812 76.7346 17.0165 77.0879 16.4089L77.0916 16.4024C77.4628 15.7491 77.9399 15.2708 78.5224 14.944Z" fill="#4C607F"/>
<path d="M5.77206 5.3683C5.73791 4.4318 5.95816 3.47462 6.46125 2.60325C7.35174 1.06087 8.9179 0.151703 10.5701 0.0339377L11.7438 0L11.7438 7.10932C9.55927 7.42974 8.29027 9.89472 9.44415 11.8934L14.3363 20.3667L7.95262 24.0523L0.88974 10.9595C-1.03818 7.38557 0.333138 3.23342 3.40599 1.27013L5.77206 5.3683Z" fill="#002CF1"/>
<path d="M15.8957 27.0779C15.1017 27.5757 14.1627 27.8636 13.1565 27.8636C11.3755 27.8636 9.80508 26.9618 8.877 25.5899L8.26074 24.5904L14.4176 21.0357C15.7874 22.7674 18.5566 22.6339 19.7106 20.6352L24.6026 12.1619L30.9862 15.8475L23.179 28.5105C21.0478 31.9671 16.7663 32.8556 13.5296 31.1761L15.8957 27.0779Z" fill="#002CF1"/>
<path d="M31.7127 9.43296C31.2096 8.56159 30.4908 7.89226 29.6627 7.45358L34.3949 7.45359C34.231 3.81078 31.3208 0.547105 27.2618 0.429786L12.3916 0L12.3916 7.37119L22.1758 7.37116C24.4836 7.37121 25.9839 9.70268 25.1691 11.7548L31.3259 15.3094L31.8834 14.276C32.6075 12.7863 32.6032 10.9753 31.7127 9.43296Z" fill="#002CF1"/>
</svg>
