<svg width="32" height="24" viewBox="0 0 32 24" fill="none" xmlns="http://www.w3.org/2000/svg">
<path d="M2.18182 24.0057H7.27273V11.642L0 6.1875V21.8239C0 23.0311 0.978182 24.0057 2.18182 24.0057Z" fill="#4285F4"/>
<path d="M24.7275 24.0057H29.8184C31.0257 24.0057 32.0003 23.0275 32.0003 21.8239V6.1875L24.7275 11.642" fill="#34A853"/>
<path d="M24.7275 2.18801V11.6426L32.0003 6.18801V3.27892C32.0003 0.580735 28.9203 -0.957447 26.7639 0.660735" fill="#FBBC04"/>
<path d="M7.27246 11.642V2.1875L15.9997 8.73295L24.727 2.1875V11.642L15.9997 18.1875" fill="#EA4335"/>
<path d="M0 3.27892V6.18801L7.27273 11.6426V2.18801L5.23636 0.660735C3.07636 -0.957447 0 0.580735 0 3.27892Z" fill="#C5221F"/>
</svg>
