<svg width="40" height="14" viewBox="0 0 40 14" fill="none" xmlns="http://www.w3.org/2000/svg">
<path d="M14.392 1.54517C14.02 1.54517 13.6623 1.75978 13.4978 2.12463L10.6219 8.57746C10.4001 9.07108 10.6219 9.65054 11.1155 9.87231L17.5683 12.7481C17.8044 12.8555 18.0691 12.8626 18.3194 12.7696C18.5627 12.6766 18.7558 12.4906 18.8631 12.2545L21.739 5.80177C21.9607 5.30816 21.739 4.7287 21.2454 4.50693L14.7926 1.63109C14.6567 1.56663 14.5208 1.54517 14.392 1.54517ZM17.9617 14C17.6613 14 17.368 13.9357 17.089 13.814L10.6362 10.9382C10.114 10.7021 9.70622 10.28 9.50591 9.74347C9.29845 9.20693 9.31276 8.62031 9.54883 8.09808L12.4247 1.64532C12.9111 0.565092 14.1845 0.0714779 15.2647 0.557939L21.7175 3.43378C22.7977 3.92024 23.2914 5.19363 22.8049 6.27386L19.9291 12.7266C19.693 13.2488 19.2709 13.6566 18.7344 13.8569C18.484 13.9499 18.2193 14 17.9617 14Z" fill="#2CA041"/>
<path d="M30.7861 3.80578C30.2496 3.80578 29.806 4.24217 29.806 4.78586V11.8467C29.806 12.3832 30.2424 12.8268 30.7861 12.8268H37.847C38.3835 12.8268 38.827 12.3904 38.827 11.8467V4.78586C38.827 4.24932 38.3906 3.80578 37.847 3.80578H30.7861ZM37.847 14H30.7861C29.5986 14 28.6328 13.0342 28.6328 11.8467V4.78586C28.6328 3.59832 29.5986 2.63255 30.7861 2.63255H37.847C39.0345 2.63255 40.0003 3.59832 40.0003 4.78586V11.8467C40.0003 13.0342 39.0345 14 37.847 14Z" fill="#F9A60D"/>
<path d="M11.698 6.15846L10.8262 8.11418L11.2228 10.559C11.3086 11.0955 10.9438 11.5963 10.4144 11.6822L3.43939 12.8125C3.18185 12.8554 2.92432 12.791 2.7097 12.6408C2.49509 12.4905 2.35916 12.2616 2.31624 12.0041L1.18593 5.03624C1.10009 4.4997 1.46493 3.99893 1.99432 3.91309L8.96931 2.78278C9.01939 2.77563 9.07662 2.76847 9.12669 2.76847C9.33416 2.76847 9.53446 2.83286 9.699 2.95447C9.91362 3.1047 10.0495 3.33363 10.0925 3.59117L10.4837 6.00308L11.3555 4.04737L11.2514 3.40517C11.1584 2.84001 10.8508 2.33924 10.3858 2.00301C9.92077 1.66678 9.34846 1.53086 8.78331 1.62386L1.80832 2.75417C0.635088 2.94017 -0.158988 4.04901 0.0270117 5.22224L1.15732 12.1901C1.25032 12.7552 1.55793 13.256 2.02293 13.5922C2.38778 13.8569 2.82416 14 3.27485 14C3.39647 14 3.51093 13.9857 3.63255 13.9714L10.6004 12.8411C11.7736 12.6551 12.5677 11.5462 12.3817 10.373L11.698 6.15846Z" fill="#ED1C24"/>
<path d="M20.095 9.46875L21.0054 7.4239L20.6728 4.9785C20.6371 4.72096 20.7086 4.46343 20.866 4.25596C21.0234 4.0485 21.2523 3.91258 21.5098 3.87681L28.5063 2.92535C28.5492 2.9182 28.5921 2.9182 28.6351 2.9182C28.9005 2.9182 29.1481 3.02822 29.3286 3.20871C29.6243 2.93637 29.9963 2.74607 30.4084 2.67296C30.2816 2.49111 30.1261 2.32779 29.9442 2.1885C29.4864 1.83797 28.9212 1.68774 28.3489 1.76643L21.3525 2.71789C20.7801 2.79658 20.2794 3.08989 19.9288 3.54773C19.5783 4.00558 19.4281 4.57073 19.5068 5.14304L20.095 9.46875Z" fill="#326ABC"/>
<path d="M31.7257 10.6091L30.8015 3.81293H30.7859C30.2493 3.81293 29.8058 4.24932 29.8058 4.79301V5.2163L30.5596 10.7593C30.5954 11.0168 30.5238 11.2744 30.3665 11.4818C30.2091 11.6893 29.9801 11.8252 29.7226 11.861L22.7262 12.8125C22.1896 12.884 21.696 12.512 21.6245 11.9755L21.3058 9.63244L20.3955 11.6773L20.4584 12.14C20.6086 13.2131 21.5315 14 22.5902 14C22.6832 14 22.7834 13.9928 22.8835 13.9785L29.88 13.0342C31.0604 12.8697 31.8831 11.7823 31.7257 10.6091Z" fill="#326ABC"/>
</svg>
